<svg xmlns="http://www.w3.org/2000/svg" version="1.1" xmlns:xlink="http://www.w3.org/1999/xlink" xmlns:svgjs="http://svgjs.dev/svgjs" viewBox="0 0 7.178207976598215 7.178207976598216"><g transform="matrix(1,0,0,1,2.557845379689833,2.5448106930063594)"><g><path d=" M 0.8901453273592748 -1.1975896408256264 L 0.8061609523592748 -1.3806951095756264 L 1.1035242336092748 -1.3806951095756264 L 1.4589929836092748 -0.6546208908256264 L 1.1401453273592748 -0.6546208908256264 L 1.0864343898592748 -0.7708318283256264 L 0.8003015773592748 -0.7708318283256264 L 0.7470789211092748 -0.6546208908256264 L 0.6235437648592748 -0.6546208908256264 L 0.8901453273592748 -1.1975896408256264 M 1.0351648586092748 -0.8826482345756264 L 0.9433679836092748 -1.0818669845756264 L 0.8520593898592748 -0.8826482345756264 L 1.0351648586092748 -0.8826482345756264" fill="#00ffff" fill-rule="nonzero"></path></g><g><path d=" M -0.9268831233166237 2.654501976569792 L -1.143441247357597 2.347485559784216 L -1.323462151522224 2.4007623455708056 L -1.4714159843593775 2.191006854713485 L -0.4388538160773874 1.9084052012278856 L -0.2751953864586365 2.140425241394084 L -0.8878662302642356 3.0183106342959904 L -1.0374731785520837 2.8062115066693143 L -0.9268831233166237 2.654501976569792 M -0.808571636454436 2.493836347898136 L -0.5793248336974578 2.179462813016933 L -0.9515661229395062 2.2911117673488817 L -0.808571636454436 2.493836347898136 M 0.9166681354259785 2.795148029318944 L 0.6030134024543659 3.751704964743337 L 0.370005943825347 3.6753018887630726 L 0.49913161024813335 3.2815056575128594 L 0.13667556349188192 3.1626564282102256 L 0.007549897069095535 3.5564526594604384 L -0.2254575615599233 3.480049583480174 L 0.08819717141168926 2.5234926480557807 L 0.3212046300407081 2.5998957240360454 L 0.1983341862127972 2.974615321246456 L 0.5607902329690486 3.09346455054909 L 0.6836606767969595 2.718744953338679 L 0.9166681354259785 2.795148029318944 M 2.010693403359428 3.382625718709581 L 1.6543874222268389 3.5018001667810665 L 1.6536728434226229 3.6895378327331403 L 1.4102424211984494 3.770958543438468 L 1.4363540878453773 2.7007405718154347 L 1.705623493434128 2.6106774393033962 L 2.3703646451664184 3.4498243436733214 L 2.1242143299565 3.5321547829898816 L 2.010693403359428 3.382625718709581 M 1.89081366933168 3.2231268110975337 L 1.6555981979083711 2.91319375701793 L 1.6555429260647414 3.3018183359691635 L 1.89081366933168 3.2231268110975337 M 2.6035561127135103 1.871340988663576 Q 2.723462178206877 1.809941663277213 2.8542812912459605 1.8217828913244836 Q 2.985100404285044 1.8336241193717542 3.107331467450226 1.9190706739746712 Q 3.2283872319311273 2.0036956270910222 3.2850282590347986 2.12289983615111 Q 3.34166928613847 2.2421040452111978 3.3247787041185126 2.3763919507575544 Q 3.307888122098555 2.5106798563039106 3.217511958576239 2.6399627115747757 L 3.0014307676092464 2.9490662655405724 L 2.176371091244268 2.3723020219708815 L 2.392452282211261 2.0631984680050848 Q 2.4836500472201437 1.9327403140499388 2.6035561127135103 1.871340988663576 M 3.0963011311551507 2.310278996975624 Q 3.078376781162871 2.2032679892364464 2.964372808787653 2.123572645039495 Q 2.8503688364124353 2.043877300842543 2.7425362271866915 2.062976949519104 Q 2.6347036179609478 2.0820765981956644 2.5550082737639963 2.1960805705708824 L 2.4884585533521086 2.2912797639976104 L 2.9679804165385915 2.626493170516747 L 3.034530136950479 2.531293977090019 Q 3.1142254811474306 2.417290004714801 3.0963011311551507 2.310278996975624" fill="#66fcf1" fill-rule="nonzero"></path></g><g clip-path="url(#SvgjsClipPath1001)"><g clip-path="url(#SvgjsClipPath100082a5e07c-74f2-4b3e-a504-4be3a2b7ecfe)"><path d=" M 1.982790736502835 0.6091512205656162 C 1.9557237625666117 0.5508511923283912 1.9318817363826408 0.5169202245381508 1.9059378473640305 0.47771891411776957 C 1.901194538996904 0.4705663062625784 1.8792410522554006 0.43744471251910977 1.8744287274966882 0.4301101523588303 C 2.1854605075014186 0.9041272782006676 1.957938561314753 1.6650518180795078 1.3918221980112044 1.9705999320619252 C 1.3809468878220243 1.976455868317637 1.3699607331251475 1.982102663992788 1.3588637339205727 1.9875403190873777 C 1.2787658437795735 2.027324764282122 1.1933505046280772 2.055353488423173 1.1052535917147104 2.0707615389042693 C 1.0554366820040981 2.079345087558031 1.0049286802210105 2.0832708737733094 0.9543837597095118 2.0824880512563326 C 0.9432700292584917 2.0822830934873826 0.9321751214597221 2.0818648123262604 0.9210990363132042 2.081233207772966 C 1.0274031020066288 2.0876893774948884 1.0384269020080077 2.0889442209782554 1.073418212541693 2.088454832019742 C 1.136953225909188 2.087423127137042 1.2001397092393864 2.0788339778363567 1.261644735046725 2.0628685733938914 C 1.8551731542444236 1.911396416516676 2.236369507621613 1.1551838139178787 1.982790736502835 0.6091512205656162 Z" fill="#45a29e" transform="matrix(1,0,0,1,0,0)" fill-rule="nonzero"></path></g><g clip-path="url(#SvgjsClipPath100082a5e07c-74f2-4b3e-a504-4be3a2b7ecfe)"><path d=" M 1.9248922581802872 0.7118789823314455 C 1.9097670855882505 0.6115626781513189 1.877532569725069 0.5145874854218394 1.8295931698359893 0.42517861746919616 C 1.7932867216219446 0.3578370019785366 1.7469202811188795 0.29642765059357407 1.6920936951460648 0.24306945694558063 C 1.6473447004303028 0.19964733829245887 1.5970243082792255 0.1623638309674405 1.5424536097545634 0.13219776097270017 C 1.5206735377233824 0.12021390241081756 1.4982769790236516 0.10938631605607635 1.4753571286989358 0.09976005692766579 C 1.4643270544801426 0.09510458760437554 1.4670563390564657 0.09630923734840773 1.360011915707854 0.05444138452587191 C 1.5036475750314438 0.11075248584196049 1.6203919385064813 0.20901927902442052 1.704384887065643 0.3442161159223678 C 1.8036492808173799 0.503995336659472 1.8423486538444143 0.6992301600191074 1.82959316983599 0.8916415855411673 C 1.787555913143199 1.52771547304242 1.204599550292867 2.0759691393602417 0.6366071959816839 1.9626504985947963 C 0.5488260991977523 1.9450999850426463 0.46526189064919043 1.9107573621127358 0.39050729202377266 1.861510113835426 C 0.3724814653852069 1.8495891007434406 0.3564822109722792 1.837906507913295 0.3385693202472171 1.8235950179854958 C 0.43124578571127764 1.8977060741131435 0.4224556071102926 1.8907291443456236 0.4283847425692013 1.8953344199295803 C 0.5646230995583429 2.001067531838073 0.734039518247705 2.054862671970011 0.9231130601040091 2.0436694680983787 C 0.9735370158057094 2.040505397662324 1.0235848690368454 2.032911510375764 1.072677854886506 2.020975623701689 C 1.615692549661272 1.888407683901395 2.012310929449041 1.2785412025502594 1.9248922581802872 0.7118789823314455 Z" fill="#45a29e" transform="matrix(1,0,0,1,0,0)" fill-rule="nonzero"></path></g><g clip-path="url(#SvgjsClipPath100082a5e07c-74f2-4b3e-a504-4be3a2b7ecfe)"><path d=" M 0.5201138012033198 0.5734070039419109 C 0.4180636549185085 0.5889043209614918 0.3387324499000547 0.705956121089954 0.3605792749454717 0.8114068932146894 C 0.3784670688008666 0.8976962053484127 0.45809943625532884 0.9404989165660568 0.5407810733743722 0.9091215552644683 C 0.6144341116305907 0.8812201104118057 0.6700299521611606 0.8018324374366004 0.6714228284276975 0.7180653607044445 C 0.6728658984335698 0.6254516374145521 0.6060768540313674 0.5603503574974785 0.5201138012033198 0.5734070039419109 Z" fill="#45a29e" transform="matrix(1,0,0,1,0,0)" fill-rule="nonzero"></path></g><g clip-path="url(#SvgjsClipPath100082a5e07c-74f2-4b3e-a504-4be3a2b7ecfe)"><path d=" M 1.6234161113013954 0.4016565763734865 C 1.4824030748580421 0.09787779170261633 1.1736864810801237 -0.05466725635287795 0.8348599179188162 0.017843874333476978 C 0.793977117230724 0.026571310760293596 0.7739058957142702 0.03327844917888956 0.6914062109003147 0.058124350149553694 C 0.7765472121682312 0.03196332260331499 0.8657602884196061 0.02162002408147668 0.9546284541887677 0.027606556634071217 C 1.0174428976591952 0.03210556475292657 1.0792460035522706 0.04587388693060472 1.138030103500254 0.06846426045249679 C 1.528286426827352 0.22159908494517347 1.6660745155184522 0.7215350029359537 1.45299581782534 1.1781160785764084 C 1.3583492480923924 1.3809991729671647 1.1981120094838595 1.5606864855678846 0.9933529240854694 1.6672917136973175 C 0.7857139728927524 1.7753651087022897 0.5404359914164458 1.7957249442199172 0.3371011533716773 1.688153486608292 C 0.30281266325049644 1.670155786663588 0.2703469413034168 1.6488810837502377 0.2401582200641691 1.6246270352628436 C 0.13248637497387394 1.5386702566522126 0.04638528936265564 1.4080222273814704 0.007497689813116378 1.2427405179698023 C 0.026176035063032142 1.3224920955551842 0.028441027550509614 1.3330076839457985 0.03442035674875294 1.3543337489456186 C 0.12798148686858687 1.6882413256521276 0.4022024332887505 1.8951336449722411 0.7369946746510332 1.8803327660859288 C 1.052449777934632 1.8665294877688932 1.3410386822393467 1.6618707898491725 1.5139749368995523 1.3948275481538677 C 1.5286126861330271 1.3722089943661797 1.5412552342279484 1.351196640237201 1.5538977823228697 1.3287474903197678 C 1.7107469435263125 1.0500718495336523 1.759177627766858 0.6941166728243874 1.6234161113013954 0.4016565763734865 Z" fill="#45a29e" transform="matrix(1,0,0,1,0,0)" fill-rule="nonzero"></path></g><g clip-path="url(#SvgjsClipPath100082a5e07c-74f2-4b3e-a504-4be3a2b7ecfe)"><path d=" M 1.016310285613667 0.579574559662659 C 1.0106600686620997 0.5554844917768148 1.0030039082474693 0.5319094780877932 0.9934219404770543 0.5090962754193581 C 0.9004254899247358 0.2886140011743815 0.6565905784543009 0.21897018784751984 0.43542441451088953 0.34052687608126914 C 0.2398758802804125 0.4480544141709768 0.11066464679812484 0.6787071948486423 0.12502633046525902 0.9027657730212146 C 0.14416896780402044 1.1999001614476572 0.40611127073943937 1.3622706339779143 0.6774021576259416 1.2426589531433836 C 0.9207665027901126 1.135394932185183 1.0768000157293671 0.8394338224156886 1.016310285613667 0.579574559662659 Z M 0.5594531444068715 1.0914063938757572 C 0.4540964855433889 1.1196403722515118 0.35622496805818904 1.0875665728166546 0.2954152528542302 1.0154883631320613 C 0.16553895232575858 0.8616131809841979 0.23271699820780417 0.5883145445243093 0.4223426711967897 0.46876560586394705 C 0.5776170038286069 0.37088781416133065 0.7545122896788353 0.4154347578208548 0.8216903355608817 0.5695734571002251 C 0.8360894260390118 0.6032784693240765 0.8445790114052268 0.6392106393865841 0.8467872052282193 0.675795957967231 C 0.8588274284511238 0.8618139559415369 0.7282484155719667 1.0461692863003813 0.5594343217546208 1.0914063938757572 Z" fill="#45a29e" transform="matrix(1,0,0,1,0,0)" fill-rule="nonzero"></path></g><g clip-path="url(#SvgjsClipPath100082a5e07c-74f2-4b3e-a504-4be3a2b7ecfe)"><path d=" M 1.3636446875922013 0.5241418487849273 C 1.2647692953203085 0.14692962346742752 0.8951802441642626 -0.021915841437002488 0.5255723703559657 0.14923853547682256 C 0.1026901164613285 0.34503176418655623 -0.1231817105447093 0.9017807208867717 0.06953715163077562 1.2981355835430333 C 0.2057755086199176 1.5782982138569388 0.5206533839011677 1.6971758112536999 0.8436500965198016 1.5577062322948885 C 1.0269701810048686 1.4786071733208574 1.180870460022399 1.3261248674395314 1.2752221415367548 1.1492107589370526 C 1.3903791280053328 0.9333463087108654 1.4112659977859743 0.7057365234803648 1.3636446875922013 0.5241418487849273 Z M 1.2110996395367069 0.7063012030478798 C 1.2067076873449227 1.0822962301865138 0.9120829858852136 1.4191213179918507 0.5798067057070818 1.452669558519664 C 0.5554574813213266 1.4551332232600245 0.5309636503056006 1.4558586868391583 0.5065112978436221 1.454840437745889 C 0.22349389860505706 1.442059856867797 0.025956437453443452 1.197766927525934 0.049120848156395905 0.8723985607237366 C 0.07072297872255633 0.567684917657758 0.2891849549593128 0.27661142325597743 0.5730180024620666 0.19211026308605197 C 0.9129049083668199 0.09102007206601635 1.213672068677609 0.32356766640356577 1.2110996395367069 0.7063012030478798 Z" fill="#45a29e" transform="matrix(1,0,0,1,0,0)" fill-rule="nonzero"></path></g></g><g><path d=" M -0.5274521181906828 1.0442932952927477 A 1.5587107267999576 1.5587107267999576 0 0 1 2.5899693354092324 1.0442932952927477 A 1.5587107267999576 1.5587107267999576 0 0 1 -0.5274521181906828 1.0442932952927477 Z M -0.477452118190683 1.0442932952927482 A 1.5087107267999578 1.5087107267999578 0 0 0 2.5399693354092325 1.0442932952927482 A 1.5087107267999578 1.5087107267999578 0 0 0 -0.477452118190683 1.0442932952927482 Z" fill="#42827f" fill-rule="nonzero"></path></g><g><path d=" M -1.9846613816399812 1.0442932952927482 A 3.015919990249256 3.015919990249256 0 0 1 4.047178598858531 1.0442932952927482 A 3.015919990249256 3.015919990249256 0 0 1 -1.984661381639981 1.0442932952927482 Z M -1.9346613816399814 1.0442932952927482 A 2.9659199902492563 2.9659199902492563 0 0 0 3.9971785988585316 1.0442932952927482 A 2.9659199902492563 2.9659199902492563 0 0 0 -1.9346613816399811 1.0442932952927482 Z" fill="#44ddaa" fill-rule="nonzero"></path></g><g transform="matrix(0.6685054596761821,-0.7437072343221737,0.7437072343221737,0.6685054596761821,-0.09530818927302798,-0.6480055817955883)"><g clip-path="url(#SvgjsClipPath1002)"><path d=" M -0.7747985966528842 -0.24335500282899386 L -0.5423474407797592 -0.3735266478853086 C -0.5462617160163886 -0.37744175831580073 -0.5509109618522146 -0.380622454943005 -0.5570273649068909 -0.3838034299681635 L -0.7285539124738998 -0.4802095791443499 C -0.7437238170004958 -0.4887736570127137 -0.759383701926556 -0.4931779126488075 -0.774553606453152 -0.4931779126488075 C -0.7899685011794801 -0.4931779126488075 -0.8056283861055404 -0.4887736570127137 -0.8207982906321364 -0.4802095791443499 L -0.9923240030052826 -0.3838034299681635 C -0.9981962510540895 -0.380622454943005 -1.003089930293739 -0.37744175831580073 -1.0070050407242312 -0.3735266478853086 L -0.7747985966528842 -0.24335500282899386 Z M -0.7926606093969912 0.041705014457066425 L -0.7926606093969912 -0.21154525257740903 L -1.0233990610556252 -0.34171745442963225 C -1.0246223416665605 -0.3368237751899827 -1.0251117652701163 -0.33168538414855525 -1.0251117652701163 -0.32556870269592464 L -1.0251117652701163 -0.12981874913040015 C -1.0251117652701163 -0.09482969424138221 -1.0128775671709924 -0.08088195673390453 -0.9891430279801241 -0.06742419962589119 L -0.7997569732505962 0.0387679160398231 C -0.7975548454325494 0.039992867038483815 -0.7951077274147704 0.041215034057602185 -0.7926606093969912 0.041705014457066425 Z M -0.7566915937090448 0.041705014457066425 C -0.7542444756912658 0.041215034057602185 -0.752042347873219 0.039992867038483815 -0.74959522985544 0.0387679160398231 L -0.5602094535238663 -0.06742419962589119 C -0.5364732439452725 -0.08088195673390453 -0.5242404378359199 -0.09482969424138221 -0.5242404378359199 -0.12981874913040015 L -0.5242404378359199 -0.32556870269592464 C -0.5242404378359199 -0.33168538414855525 -0.5247304182353841 -0.3368237751899827 -0.5259525852545025 -0.34171745442963225 L -0.7566915937090448 -0.21154525257740903 L -0.7566915937090448 0.041705014457066425 Z" fill="#66fcf1" transform="matrix(1,0,0,1,0,0)" fill-rule="nonzero"></path></g></g><g transform="matrix(-0.6685054596761821,-0.7437072343221737,-0.7437072343221737,0.6685054596761821,4.572216056329922,2.037985634542963)"><g clip-path="url(#SvgjsClipPath1003)"><path d=" M 2.8368258334719694 -0.24335500282899364 L 3.069276989345094 -0.37352664788530837 C 3.0653627141084647 -0.3774417583158005 3.060713468272639 -0.3806224549430048 3.054597065217963 -0.3838034299681633 L 2.8830705176509537 -0.4802095791443497 C 2.8679006131243576 -0.48877365701271347 2.8522407281982973 -0.4931779126488073 2.8370708236717013 -0.4931779126488073 C 2.8216559289453733 -0.4931779126488073 2.805996044019313 -0.48877365701271347 2.790826139492717 -0.4802095791443497 L 2.619300427119571 -0.3838034299681633 C 2.613428179070764 -0.3806224549430048 2.6085344998311144 -0.3774417583158005 2.604619389400622 -0.37352664788530837 L 2.8368258334719694 -0.24335500282899364 Z M 2.8189638207278622 0.04170501445706665 L 2.8189638207278622 -0.2115452525774088 L 2.588225369069228 -0.34171745442963203 C 2.587002088458293 -0.33682377518998247 2.586512664854737 -0.33168538414855503 2.586512664854737 -0.3255687026959244 L 2.586512664854737 -0.12981874913039992 C 2.586512664854737 -0.09482969424138199 2.598746862953861 -0.0808819567339043 2.622481402144729 -0.06742419962589097 L 2.811867456874257 0.038767916039823325 C 2.8140695846923043 0.03999286703848404 2.816516702710083 0.04121503405760241 2.8189638207278622 0.04170501445706665 Z M 2.8549328364158084 0.04170501445706665 C 2.8573799544335876 0.04121503405760241 2.8595820822516345 0.03999286703848404 2.8620292002694137 0.038767916039823325 L 3.051414976600987 -0.06742419962589097 C 3.075151186179581 -0.0808819567339043 3.0873839922889337 -0.09482969424138199 3.0873839922889337 -0.12981874913039992 L 3.0873839922889337 -0.3255687026959244 C 3.0873839922889337 -0.33168538414855503 3.0868940118894694 -0.33682377518998247 3.085671844870351 -0.34171745442963203 L 2.8549328364158084 -0.2115452525774088 L 2.8549328364158084 0.04170501445706665 Z" fill="#66fcf1" transform="matrix(1,0,0,1,0,0)" fill-rule="nonzero"></path></g></g></g><defs><clipPath id="SvgjsClipPath1001"><path d=" M 0 0 h 2.0625172172185495 v 2.088586590585496 h -2.0625172172185495 Z"></path></clipPath><clipPath id="SvgjsClipPath100082a5e07c-74f2-4b3e-a504-4be3a2b7ecfe"><path d=" M 1.8318832825934713e-16 0 L 2.0625172172185495 0 L 2.0625172172185495 2.088586590585496 L 3.6637665651869427e-16 2.088586590585496 Z"></path></clipPath><clipPath id="SvgjsClipPath1002"><path d=" M -1.164310742390652 -0.6068480757633912 h 0.779514271875 v 0.779514271875 h -0.779514271875 Z"></path></clipPath><clipPath id="SvgjsClipPath1003"><path d=" M 2.4473136877342014 -0.606848075763391 h 0.779514271875 v 0.779514271875 h -0.779514271875 Z"></path></clipPath></defs></svg>